<svg xmlns="http://www.w3.org/2000/svg" viewBox="0 0 150 106.06"><defs><style>.cls-1{fill:#fff;}</style></defs><title>Asset 1</title><g id="Layer_2" data-name="Layer 2"><g id="Layer_1-2" data-name="Layer 1"><path class="cls-1" d="M150,106.06H27.54L88.77,0ZM46.91,94.87h83.71L88.77,22.37Z"/><path class="cls-1" d="M40.45,106.06H0L47,24.74l20.22,35ZM19.38,94.87H34l20.27-35.1L47,47.11Z"/><path class="cls-1" d="M107.09,53.73c-5-4.95-9.71-4.79-16.31-4.56-1.37,0-2.78.09-4.25.09-10.59,0-15-10.15-15.81-15.51l11-1.77c0,.06,1.09,6.1,4.77,6.1,1.27,0,2.54,0,3.87-.09,7.6-.26,16.22-.55,24.6,7.83Z"/></g></g></svg>